HIERARCHY
ROOT hip
{
	OFFSET 0.000000 0.000000 0.000000 
	CHANNELS 6 Xposition Yposition Zposition Xrotation Zrotation Yrotation
	JOINT abdomen
	{
		OFFSET 0.000000 3.402643 0.000000 
		CHANNELS 3 Xrotation Zrotation Yrotation
		JOINT chest
		{
			OFFSET 0.000000 8.438565 -0.680529 
			CHANNELS 3 Xrotation Zrotation Yrotation
			JOINT neck
			{
				OFFSET 0.000000 10.207942 -0.272212 
				CHANNELS 3 Xrotation Zrotation Yrotation
				JOINT head
				{
					OFFSET 0.000000 3.130431 0.000000 
					CHANNELS 3 Xrotation Zrotation Yrotation
					End Site
					{
						OFFSET 0.000000 3.130435 0.000000 
					}
				}
			}
			JOINT lCollar
			{
				OFFSET 3.470700 6.669187 -0.816635 
				CHANNELS 3 Yrotation Zrotation Xrotation
				JOINT lShldr
				{
					OFFSET 3.198488 0.000000 0.000000 
					CHANNELS 3 Zrotation Yrotation Xrotation
					JOINT lForeArm
					{
						OFFSET 10.139888 0.000000 0.000000 
						CHANNELS 3 Yrotation Zrotation Xrotation
						JOINT lHand
						{
							OFFSET 8.370511 0.000000 0.000000 
							CHANNELS 3 Zrotation Yrotation Xrotation
							End Site
							{
								OFFSET 4.083176 0.000000 0.000000 
							}
						}
					}
				}
			}
			JOINT rCollar
			{
				OFFSET -3.470700 6.669187 -0.816635 
				CHANNELS 3 Yrotation Zrotation Xrotation
				JOINT rShldr
				{
					OFFSET -3.198488 0.000000 0.000000 
					CHANNELS 3 Zrotation Yrotation Xrotation
					JOINT rForeArm
					{
						OFFSET -10.139888 0.000000 0.000000 
						CHANNELS 3 Yrotation Zrotation Xrotation
						JOINT rHand
						{
							OFFSET -8.370511 0.000000 0.000000 
							CHANNELS 3 Zrotation Yrotation Xrotation
							End Site
							{
								OFFSET -4.083176 0.000000 0.000000 
							}
						}
					}
				}
			}
		}
	}
	JOINT lThigh
	{
		OFFSET 5.308129 -1.633274 1.361059 
		CHANNELS 3 Xrotation Zrotation Yrotation
		JOINT lShin
		{
			OFFSET -2.041588 -20.007561 0.000000 
			CHANNELS 3 Xrotation Zrotation Yrotation
			JOINT lFoot
			{
				OFFSET 0.000000 -19.190928 -1.224953 
				CHANNELS 3 Xrotation Yrotation Zrotation
				End Site
				{
					OFFSET 0.000000 -2.449906 4.627600 
				}
			}
		}
	}
	JOINT rThigh
	{
		OFFSET -5.308129 -1.633274 1.361059 
		CHANNELS 3 Xrotation Zrotation Yrotation
		JOINT rShin
		{
			OFFSET 2.041588 -20.007561 0.000000 
			CHANNELS 3 Xrotation Zrotation Yrotation
			JOINT rFoot
			{
				OFFSET 0.000000 -19.190928 -1.224953 
				CHANNELS 3 Xrotation Yrotation Zrotation
				End Site
				{
					OFFSET 0.000000 -2.449906 4.627600 
				}
			}
		}
	}
}
MOTION
Frames: 18
Frame Time: 0.033333
-0.007778 49.961746 -0.991590 -1.267734 -0.117174 -0.878924 0.000000 0.000000 0.000000 -0.749989 -0.576169 -0.195401 6.544207 -0.058581 -1.210947 3.654387 0.995940 -1.005877 -1.153514 6.280875 -0.078709 -1.741529 7.484348 -17.921926 2.111553 -8.433293 19.614138 4.933695 -2.403705 -3.663974 1.728516 -7.119140 0.000000 11.026470 -13.368668 10.429480 -2.256559 -3.693403 -5.036898 10.870835 11.248680 -1.895841 0.945728 6.750044 1.889819 12.175525 -3.253294 5.856822 -11.167284 0.449966 -4.636160 0.164963 -8.881754 -6.260042 11.478586 3.902794 -0.907862 -9.247213 -0.444632 5.036074 
0.122339 49.973824 -1.186913 -1.609604 -0.068338 -1.445323 0.000000 0.000000 0.000000 -0.175475 -0.898437 -0.019682 7.165087 -0.214733 -1.835961 2.656000 1.522647 -1.846349 -1.311555 5.458852 0.441065 -2.126188 7.477257 -18.570547 1.808224 -8.241611 18.556725 5.426039 -2.126711 -3.681279 2.368290 -6.628096 0.550659 12.741872 -13.337710 9.492236 -1.761630 -4.049696 -5.079297 12.871799 9.843853 -1.812695 1.072728 6.526000 1.891547 12.181453 -3.368905 6.635322 -10.967521 0.438664 -4.520095 0.253393 -9.197709 -6.391162 11.336817 3.934110 -0.058457 -8.858027 -0.429486 5.059521 
0.287575 49.981728 -1.433208 -1.901315 -0.078068 -2.187511 0.000000 0.000000 0.000000 0.502329 -1.191394 0.263615 7.653790 -0.370701 -2.636790 2.051397 1.901824 -2.921229 -1.342567 4.478003 1.057296 -2.913143 7.533868 -18.664194 0.423014 -8.303590 17.325233 6.069435 -1.760970 -3.700715 3.009427 -5.671104 1.196549 14.618970 -13.174122 8.249952 -1.209947 -4.527680 -5.249612 15.516802 8.880162 -1.645980 1.052893 6.312104 1.876176 12.389380 -3.487242 7.399858 -10.840698 0.418245 -4.322889 0.204110 -9.466710 -6.448558 11.117574 3.971188 0.883730 -8.358156 -0.341584 5.082974 
0.496281 49.977219 -1.744663 -2.243922 -0.243849 -2.802792 0.000000 0.000000 0.000000 1.328844 -1.396455 0.370984 8.104865 -0.448301 -3.662226 1.582545 2.425320 -4.134178 -1.616679 3.221867 1.818347 -4.320313 9.213104 -18.107040 -4.881934 -8.440847 16.560257 6.267963 -0.709480 -3.663191 3.795291 -4.130950 1.954490 16.348736 -13.610164 7.199123 0.635720 -4.859062 -6.035452 18.069666 8.103789 -1.509271 0.731473 6.228470 1.944213 13.114026 -3.624916 7.920372 -10.908961 0.346552 -4.066383 0.165050 -9.604215 -6.427820 10.794210 3.970669 1.581215 -7.696611 -0.325965 5.219931 
0.738608 49.978836 -2.128818 -2.880455 -0.467808 -3.633010 0.000000 0.000000 0.000000 2.595060 -1.611281 0.439554 8.760078 -0.574072 -4.892919 0.921902 2.984094 -5.534569 -1.808207 1.882130 2.949447 -5.997135 10.644993 -16.448307 -9.945313 -8.723697 15.752595 7.569449 1.143250 -3.620816 4.303146 -2.545674 3.080997 18.430330 -16.264725 5.661541 9.374880 -5.412526 -7.910529 19.674858 5.220063 -1.878698 0.702178 6.208216 2.169841 13.745322 -3.848061 8.504524 -10.849691 0.352062 -3.738019 0.389478 -9.710699 -6.360008 10.118893 3.911727 2.512228 -6.672818 -0.310846 5.414426 
1.030681 49.972794 -2.601315 -3.509260 -0.700956 -4.502332 0.000000 0.000000 0.000000 3.877118 -1.816381 0.302582 9.857075 -0.737679 -6.318964 -0.232331 3.228678 -6.865985 -2.295325 0.198482 4.078830 -7.955446 12.808341 -14.422264 -15.910439 -8.835965 18.364586 7.213289 1.814775 -3.578646 4.711419 -1.081702 4.215611 20.884329 -19.037809 4.911375 19.403671 -5.733304 -8.295892 20.256395 2.984837 -2.268893 0.409001 6.124407 2.405369 14.498471 -4.151584 9.691882 -10.671180 0.313757 -3.343652 0.643858 -9.911244 -6.408469 9.517207 3.942448 3.620531 -5.743182 -0.249051 5.607958 
1.356418 49.957222 -3.139803 -4.067381 -1.059503 -5.528382 0.000000 0.000000 0.000000 5.220928 -1.962887 0.107359 10.696021 -0.919961 -7.422952 -0.554176 3.589037 -7.866632 -3.061110 -2.016587 5.239184 -8.935725 14.119617 -10.661490 -19.944941 -9.351667 19.584549 8.728021 3.044651 -3.510568 4.938579 0.575026 5.389993 23.003742 -19.884279 5.576898 26.528494 -5.609993 -10.295913 19.669230 1.496369 -2.586477 -0.136766 6.027332 2.644721 15.405401 -4.443998 11.584825 -10.490022 0.280833 -2.979410 0.847638 -9.991095 -6.299939 8.465486 3.933657 4.859836 -4.478814 -0.206835 5.859187 
1.732205 49.961525 -3.745065 -4.448740 -1.600098 -6.770382 0.000000 0.000000 0.000000 6.583838 -2.119140 -0.049156 11.527460 -0.550546 -8.486778 -1.056647 3.100725 -8.459636 -3.921623 -2.173010 6.443023 -13.474746 15.573000 -8.279048 -25.369137 -8.907626 23.708279 8.748795 3.763606 -3.475679 5.014163 2.298945 6.569179 25.625170 -19.381199 5.109878 31.899763 -5.705510 -11.711970 19.743484 0.329542 -2.797201 -0.683546 6.160473 2.938854 15.990772 -4.659263 13.011818 -10.142746 0.259146 -2.587366 0.741165 -9.918902 -6.114802 7.310613 4.039990 5.932138 -2.561943 -0.114853 6.104554 
2.157282 49.990818 -4.445440 -4.330518 -2.425053 -8.376881 0.000000 0.000000 0.000000 7.683733 -1.943343 -0.234571 12.271153 -0.405113 -8.994398 -1.618148 3.040734 -8.713174 -4.349607 -3.596682 7.381638 -15.988284 16.323759 -4.787638 -30.190874 -8.709874 28.216703 7.930228 3.726052 -3.477504 5.141411 4.436435 7.465717 27.942307 -18.400610 5.028888 37.230892 -5.760149 -12.953881 19.722652 -1.488805 -3.145636 -1.582131 6.638973 3.409799 16.370266 -5.018877 14.522312 -9.677608 0.170792 -2.054744 -0.898772 -9.816816 -5.743002 7.796707 4.400693 7.778102 -0.278953 0.018525 6.226512 
2.623981 49.995148 -5.182268 -3.794992 -3.311841 -10.594412 0.000000 0.000000 0.000000 8.626943 -1.757808 -0.127193 12.540145 -0.067493 -9.130876 -1.780353 2.818569 -8.731200 -4.427981 -6.638935 8.145197 -15.695594 16.883078 0.639950 -35.940010 -8.708724 30.321106 7.202801 3.489725 -3.490781 5.196940 6.581055 8.229699 29.713440 -16.754635 5.658482 41.474628 -5.557350 -15.989811 19.716160 -4.143028 -3.652265 -2.956758 7.258952 3.854525 17.015432 -5.254348 16.287020 -9.365196 0.137720 -1.659165 -2.225965 -9.603809 -5.317363 6.711973 4.938381 10.767521 2.589248 0.158412 6.496337 
3.112784 49.954697 -5.904058 -3.030142 -4.266409 -13.368013 0.000000 0.000000 0.000000 9.299974 -1.503891 0.253819 12.707292 0.299124 -8.857503 -2.348266 2.298287 -8.571218 -4.132625 -7.646191 8.743042 -18.758150 16.441673 4.717365 -41.343250 -8.145693 33.440311 7.528275 3.296202 -3.500014 5.472948 8.289548 8.772189 31.307570 -14.994888 7.541645 45.179554 -5.237649 -19.201281 20.274029 -6.763148 -4.151151 -4.675724 7.935307 4.137230 18.255486 -5.361883 18.453043 -9.396519 0.127281 -1.567230 -3.095145 -9.362625 -4.900894 4.374122 5.633759 14.687968 5.804919 0.389557 7.143691 
3.579127 49.962158 -6.583565 -2.454736 -5.006466 -16.294666 0.000000 0.000000 0.000000 9.897529 -1.474537 0.566470 12.963593 0.570121 -8.310909 -2.671097 1.904971 -8.031643 -3.714038 -8.477702 9.285748 -22.217758 15.393465 8.161421 -46.227287 -7.377184 34.123028 8.748528 4.508666 -3.426958 5.967343 10.122479 9.243801 32.642921 -13.398839 9.634833 48.387226 -5.008297 -21.488062 18.273495 -9.113770 -4.522218 -5.585592 8.338932 4.222829 18.549883 -5.304306 21.438644 -9.014178 0.128290 -1.608195 -2.830728 -9.162876 -4.689159 1.162338 6.200924 17.913116 8.802270 0.640501 8.071213 
3.975455 49.993889 -7.231119 -2.391713 -5.738830 -18.927454 0.000000 0.000000 0.000000 10.585240 -1.581902 0.732682 13.572612 0.735520 -7.686165 -2.892467 1.685350 -7.327352 -3.671146 -8.939200 9.887438 -26.617872 14.142626 10.288651 -50.467960 -6.394175 36.591187 10.456601 4.542101 -3.412785 6.545586 12.287850 9.725866 33.263485 -12.316781 11.688421 50.939075 -4.732095 -23.859268 17.687704 -9.751485 -4.601817 -5.653035 8.718449 4.316913 18.426275 -5.107580 23.722998 -8.473570 0.127891 -1.702753 -1.464057 -8.789954 -4.664747 -1.484924 6.059645 16.199446 10.606652 0.854813 8.789301 
4.282470 50.037880 -7.845410 -2.384210 -6.566197 -21.259594 0.000000 0.000000 0.000000 11.090254 -1.484196 0.888880 13.877694 0.630031 -7.002280 -2.423344 2.151702 -7.026409 -3.444677 -9.594792 10.360432 -30.610794 12.225763 11.913185 -53.966473 -5.657594 38.207455 10.280155 3.527276 -3.484040 6.915164 14.025520 10.093514 34.266094 -11.238555 13.945816 53.153458 -4.640482 -25.050316 17.426376 -11.827181 -4.937390 -5.611922 9.329661 4.582377 18.071581 -4.997401 25.232855 -7.682078 0.105564 -1.634269 -1.630388 -8.352904 -4.690207 2.205598 5.349640 11.384912 8.863013 0.696875 8.410135 
4.557327 50.046055 -8.405643 -2.517743 -7.142785 -22.854280 0.000000 0.000000 0.000000 11.358602 -1.474495 0.712906 14.067979 0.872975 -6.660868 -2.123875 2.260651 -6.528354 -3.491518 -9.633768 10.586825 -35.163944 10.490476 13.178885 -57.123756 -4.881854 39.322224 9.053330 1.498788 -3.617165 6.893869 15.746281 10.218291 34.980747 -10.784686 16.122129 54.758389 -4.598875 -24.533928 16.812260 -12.563075 -5.018430 -5.661839 9.702464 4.764884 17.858818 -4.924949 26.491592 -6.982315 0.090750 -1.455969 -2.294039 -8.549109 -5.553075 9.523917 4.850506 5.588800 5.073442 0.392551 8.283078 
4.764069 50.050114 -8.938778 -2.938647 -7.434445 -24.093307 0.000000 0.000000 0.000000 11.410548 -1.464765 0.595758 14.453700 0.679181 -6.514022 -2.229219 2.465065 -6.392544 -3.584400 -10.437634 10.628177 -39.015282 8.982993 14.336671 -59.503807 -4.188063 39.611958 8.337475 1.978980 -3.577766 6.969306 16.720072 10.191115 35.689953 -11.009529 18.432091 55.809837 -4.577785 -24.483257 16.472073 -14.166354 -5.247995 -5.388418 9.780032 4.790309 17.250681 -4.804920 27.506353 -6.008578 0.087656 -1.293462 -1.698519 -9.258756 -6.627700 16.513554 4.003654 2.179114 1.361987 0.144735 9.563798 
4.928194 49.988674 -9.511883 -3.108455 -7.437634 -25.247028 0.000000 0.000000 0.000000 11.183994 -1.503808 0.654328 14.203874 0.572639 -6.347923 -1.971663 2.610688 -6.383206 -3.542621 -11.128601 10.376024 -42.380398 7.514243 15.884957 -61.557949 -3.538941 40.257748 7.367001 3.217162 -3.508317 7.218083 17.774954 9.894108 35.848431 -11.578429 20.348366 56.323769 -4.567115 -24.493328 17.011684 -15.916680 -5.585171 -5.827729 9.878070 4.853295 17.233709 -4.865996 28.270470 -5.288249 0.059765 -1.111610 -0.537653 -10.242968 -7.521591 22.173504 3.015211 1.151889 -1.044850 -0.115747 11.562817 
5.048964 49.904457 -10.098037 -3.444904 -7.106251 -26.489567 0.000000 0.000000 0.000000 10.881992 -1.689250 0.888861 13.801897 0.339896 -6.044989 -1.905664 2.639904 -6.364141 -3.337215 -11.943599 10.070519 -45.141563 6.591002 17.472151 -63.392235 -2.840935 40.930775 8.060369 4.118546 -3.462473 7.617230 18.239128 9.584060 36.151951 -12.317590 22.163202 56.437836 -4.585925 -23.099527 17.607853 -16.939831 -5.839330 -6.148636 9.690501 4.835411 17.045584 -5.015768 29.991976 -4.430326 0.056860 -0.993487 1.052484 -11.662103 -8.427719 26.853903 2.072365 2.230633 -2.044235 -0.214987 13.324768 
